<svg width="14" height="14" viewBox="0 0 14 14" fill="none" xmlns="http://www.w3.org/2000/svg">
<path d="M5.80409 8.19694C4.46642 6.85928 4.16438 5.52162 4.09624 4.98569C4.0772 4.8375 4.12819 4.68889 4.23421 4.58361L4.80405 4.09581C5.19788 3.75868 5.26876 3.17648 4.96733 2.7547L3.58846 0.825305C3.27857 0.391689 2.68306 0.277311 2.23458 0.565268L0.518732 1.66697C0.200687 1.87118 0.0209205 2.23766 0.0820611 2.61064C0.342142 4.19724 1.17066 7.02009 4.07521 9.92483C6.98688 12.8367 9.816 13.662 11.4008 13.9199C11.7677 13.9796 12.1292 13.8063 12.3354 13.497L13.4629 11.8057C13.7623 11.3566 13.6513 10.751 13.2121 10.4373L11.2459 9.03285C10.8239 8.73139 10.2414 8.80264 9.90445 9.19693L9.41745 9.76681C9.31218 9.87282 9.16356 9.92382 9.01538 9.90478C8.47944 9.83664 7.14176 9.5346 5.80409 8.19694Z" fill="white"/>
</svg>
