<svg width="1900" height="625" viewBox="0 0 1900 625" fill="none" xmlns="http://www.w3.org/2000/svg">
<path fill-rule="evenodd" clip-rule="evenodd" d="M1423.75 427.137C1485.88 425.176 1547.98 424.606 1610.04 425.429C1666.47 426.251 1722.93 428.371 1779.43 431.788C1826.34 434.397 1873.2 437.821 1920 442.06V625H261.451C277.833 593.478 295.665 565.67 310.977 548.256C358.248 494.404 407.023 442.166 457.304 391.542C599.021 247.836 751.216 110.745 920.948 0L1226.05 0C1221.05 2.94942 1216.18 5.82445 1211.51 8.63348C1167.33 34.9667 1122.15 59.537 1076.95 84.1178C1018.86 115.712 960.73 147.323 904.641 182.717C717.08 301.922 545.283 443.75 393.22 604.923C392.247 605.714 391.598 606.827 391.394 608.056C391.394 610.713 394.949 611.568 397.543 611.568C414.753 611.306 428.862 604.782 443.358 598.079C449.902 595.053 456.526 591.99 463.549 589.451C491.123 579.295 518.985 569.803 546.944 560.975C602.925 542.94 659.483 527.12 716.617 513.515C947.011 458.841 1187.3 434.731 1423.75 427.137ZM0 377.96C89.1802 330.378 225.061 255.32 346.508 188.237C476.678 116.334 590.265 53.5916 611.988 43.6591C647.69 27.4149 683.604 12.9931 719.836 0L0 0V377.96Z" fill="#C4E5F0"/>
</svg>
